<svg width="56" height="56" viewBox="0 0 56 56" fill="none" xmlns="http://www.w3.org/2000/svg">
<rect x="9.79688" y="11.2031" width="36.4" height="42" rx="5.6" fill="#545E8B"/>
<path d="M36.4016 47.6031C34.082 47.6031 32.2016 45.7227 32.2016 43.4031C32.2016 41.0835 34.082 39.2031 36.4016 39.2031C38.7212 39.2031 40.6016 41.0835 40.6016 43.4031C40.6016 45.7227 38.7212 47.6031 36.4016 47.6031Z" fill="white"/>
<path d="M16.7969 33.6016L39.1969 33.6016" stroke="white" stroke-width="2.8" stroke-linecap="round" stroke-linejoin="round"/>
<path d="M16.7969 43.3984H26.5969" stroke="white" stroke-width="2.8" stroke-linecap="round" stroke-linejoin="round"/>
<path d="M32.2031 18.2031L37.8031 23.8031" stroke="white" stroke-width="2.8" stroke-linecap="round" stroke-linejoin="round"/>
<path d="M35.7031 11.8984C35.7031 17.6974 31.0021 22.3984 25.2031 22.3984C19.4041 22.3984 14.7031 17.6974 14.7031 11.8984C14.7031 6.09945 19.4041 1.39844 25.2031 1.39844C31.0021 1.39844 35.7031 6.09945 35.7031 11.8984Z" fill="white"/>
<path d="M22.6931 10.9116C22.1463 10.3649 21.2599 10.3649 20.7132 10.9116C20.1664 11.4583 20.1664 12.3448 20.7132 12.8915L22.6931 10.9116ZM30.4567 10.0235C30.9659 9.44158 30.9069 8.55711 30.325 8.04796C29.7431 7.5388 28.8587 7.59776 28.3495 8.17966L30.4567 10.0235ZM24.5031 14.7016L23.5132 15.6915C23.7872 15.9655 24.1625 16.1137 24.5497 16.1008C24.937 16.0879 25.3016 15.9151 25.5567 15.6235L24.5031 14.7016ZM28.3495 8.17966L23.4495 13.7797L25.5567 15.6235L30.4567 10.0235L28.3495 8.17966ZM25.4931 13.7116L22.6931 10.9116L20.7132 12.8915L23.5132 15.6915L25.4931 13.7116Z" fill="#545E8B"/>
</svg>
