<svg width="56" height="56" viewBox="0 0 56 56" fill="none" xmlns="http://www.w3.org/2000/svg">
<rect x="1.39844" y="14" width="53.2" height="39.2" rx="5.6" fill="#545E8B"/>
<path d="M50.3984 13.2969C50.3984 19.0959 45.6974 23.7969 39.8984 23.7969C34.0994 23.7969 29.3984 19.0959 29.3984 13.2969C29.3984 7.49789 34.0994 2.79688 39.8984 2.79688C45.6974 2.79688 50.3984 7.49789 50.3984 13.2969Z" fill="white"/>
<path d="M16.7984 25.2C16.7984 27.5196 14.918 29.4 12.5984 29.4C10.2788 29.4 8.39844 27.5196 8.39844 25.2C8.39844 22.8804 10.2788 21 12.5984 21C14.918 21 16.7984 22.8804 16.7984 25.2Z" fill="white"/>
<path d="M35 16.7969V32.1969L39.9 28.6969L44.8 32.1969V16.7969" stroke="white" stroke-width="2.8" stroke-linecap="round" stroke-linejoin="round"/>
<path d="M9.79688 36.3984H25.1969" stroke="white" stroke-width="2.8" stroke-linecap="round" stroke-linejoin="round"/>
<path d="M9.79688 44.7969H41.9969" stroke="white" stroke-width="2.8" stroke-linecap="round" stroke-linejoin="round"/>
<path d="M35.7031 13.3016L34.7132 12.3116C34.4506 12.5742 34.3031 12.9303 34.3031 13.3016C34.3031 13.6729 34.4506 14.029 34.7132 14.2915L35.7031 13.3016ZM39.9031 9.10156L40.8931 8.11161C40.6305 7.84906 40.2744 7.70156 39.9031 7.70156C39.5318 7.70156 39.1757 7.84906 38.9132 8.11161L39.9031 9.10156ZM44.1031 13.3016L45.0931 14.2915C45.6398 13.7448 45.6398 12.8583 45.0931 12.3116L44.1031 13.3016ZM39.9031 17.5016L38.9132 18.4915C39.4599 19.0382 40.3463 19.0382 40.8931 18.4915L39.9031 17.5016ZM36.6931 14.2915L40.8931 10.0915L38.9132 8.11161L34.7132 12.3116L36.6931 14.2915ZM38.9132 10.0915L43.1132 14.2915L45.0931 12.3116L40.8931 8.11161L38.9132 10.0915ZM43.1132 12.3116L38.9132 16.5116L40.8931 18.4915L45.0931 14.2915L43.1132 12.3116ZM40.8931 16.5116L36.6931 12.3116L34.7132 14.2915L38.9132 18.4915L40.8931 16.5116Z" fill="#545E8B"/>
</svg>
