<svg width="56" height="56" viewBox="0 0 56 56" fill="none" xmlns="http://www.w3.org/2000/svg">
<rect x="2.80078" y="12.6016" width="50.4" height="36.4" rx="5.6" fill="#545E8B"/>
<path d="M37.7992 30.8C37.7992 36.2124 33.4116 40.6 27.9992 40.6C22.5868 40.6 18.1992 36.2124 18.1992 30.8C18.1992 25.3876 22.5868 21 27.9992 21C33.4116 21 37.7992 25.3876 37.7992 30.8Z" fill="white"/>
<path d="M9.80078 30.8008H23.8008" stroke="white" stroke-width="2.8" stroke-linecap="round" stroke-linejoin="round"/>
<path d="M32.1992 30.8008H46.1992" stroke="white" stroke-width="2.8" stroke-linecap="round" stroke-linejoin="round"/>
<path d="M36.4016 13.9992V16.0992C37.5614 16.0992 38.5016 15.159 38.5016 13.9992H36.4016ZM19.6016 13.9992H17.5016C17.5016 15.159 18.4418 16.0992 19.6016 16.0992V13.9992ZM22.4016 6.29922H33.6016V2.09922H22.4016V6.29922ZM34.3016 6.99922V13.9992H38.5016V6.99922H34.3016ZM36.4016 11.8992H19.6016V16.0992H36.4016V11.8992ZM21.7016 13.9992L21.7016 6.99922L17.5016 6.99922L17.5016 13.9992L21.7016 13.9992ZM33.6016 6.29922C33.9882 6.29922 34.3016 6.61262 34.3016 6.99922H38.5016C38.5016 4.29302 36.3078 2.09922 33.6016 2.09922V6.29922ZM22.4016 2.09922C19.6954 2.09922 17.5016 4.29303 17.5016 6.99922L21.7016 6.99922C21.7016 6.61262 22.015 6.29922 22.4016 6.29922V2.09922Z" fill="#545E8B"/>
<path d="M24.5 34.3008L31.5 27.3008" stroke="#545E8B" stroke-width="2.8" stroke-linecap="round" stroke-linejoin="round"/>
<path d="M25.9016 27.2984C25.9016 28.0716 25.2748 28.6984 24.5016 28.6984C23.7284 28.6984 23.1016 28.0716 23.1016 27.2984C23.1016 26.5252 23.7284 25.8984 24.5016 25.8984C25.2748 25.8984 25.9016 26.5252 25.9016 27.2984Z" fill="#545E8B"/>
<path d="M32.9016 34.2984C32.9016 35.0716 32.2748 35.6984 31.5016 35.6984C30.7284 35.6984 30.1016 35.0716 30.1016 34.2984C30.1016 33.5252 30.7284 32.8984 31.5016 32.8984C32.2748 32.8984 32.9016 33.5252 32.9016 34.2984Z" fill="#545E8B"/>
</svg>
