<svg width="56" height="56" viewBox="0 0 56 56" fill="none" xmlns="http://www.w3.org/2000/svg">
<path d="M43.3996 1.39894C46.4923 1.39898 48.9995 3.90612 48.9995 6.99884L49 33.3084C49 34.9847 48.2491 36.5728 46.9535 37.6365L31.5536 50.2808C29.488 51.9767 26.512 51.9767 24.4464 50.2808L9.04643 37.6365C7.7509 36.5728 7 34.9847 7.00001 33.3084L7.00012 6.99849C7.00014 3.90568 9.50739 1.39847 12.6002 1.39851L43.3996 1.39894Z" fill="#545E8B"/>
<path d="M18.2031 19.5969C18.2031 18.0505 19.4567 16.7969 21.0031 16.7969H35.0031C36.5495 16.7969 37.8031 18.0505 37.8031 19.5969V30.7969C37.8031 32.3433 36.5495 33.5969 35.0031 33.5969H21.0031C19.4567 33.5969 18.2031 32.3433 18.2031 30.7969L18.2031 19.5969Z" fill="white"/>
<path d="M29.4016 21.6969C29.4016 22.4701 28.7748 23.0969 28.0016 23.0969C27.2284 23.0969 26.6016 22.4701 26.6016 21.6969C26.6016 20.9237 27.2284 20.2969 28.0016 20.2969C28.7748 20.2969 29.4016 20.9237 29.4016 21.6969Z" fill="#545E8B"/>
<path d="M28 25.8984V28.6984" stroke="#545E8B" stroke-width="2.8" stroke-linecap="round" stroke-linejoin="round"/>
<path d="M23.7969 18.2031V14.0031C23.7969 11.6835 25.6773 9.80313 27.9969 9.80313V9.80313C30.3165 9.80313 32.1969 11.6835 32.1969 14.0031V18.2031" stroke="white" stroke-width="2.8" stroke-linecap="round" stroke-linejoin="round"/>
</svg>
