<svg width="56" height="56" viewBox="0 0 56 56" fill="none" xmlns="http://www.w3.org/2000/svg">
<g clip-path="url(#clip0_15039_3429)">
<rect y="18.1992" width="47.6" height="35" rx="5.6" fill="#545E8B"/>
<path d="M39.1992 42H20.9992" stroke="white" stroke-width="2.8" stroke-linecap="round" stroke-linejoin="round"/>
<path d="M26.6016 5.59945V30.5718C26.6016 31.736 27.9398 32.3915 28.8597 31.678L32.844 28.5871C33.3351 28.2062 33.9388 27.9995 34.5603 27.9995H53.2016C54.748 27.9995 56.0016 26.7459 56.0016 25.1995V5.59946C56.0016 4.05306 54.748 2.79946 53.2016 2.79946H29.4016C27.8552 2.79946 26.6016 4.05306 26.6016 5.59945Z" fill="white"/>
<path d="M46.2703 20.0412C46.5148 20.7747 47.3076 21.1711 48.0412 20.9266C48.7747 20.6821 49.1711 19.8892 48.9266 19.1557L46.2703 20.0412ZM35.0703 19.1557C34.8258 19.8892 35.2222 20.6821 35.9557 20.9266C36.6892 21.1711 37.4821 20.7747 37.7266 20.0412L35.0703 19.1557ZM41.9984 16.7984C44.3144 16.7984 45.6992 18.328 46.2703 20.0412L48.9266 19.1557C48.0976 16.6688 45.8681 13.9984 41.9984 13.9984V16.7984ZM41.9984 13.9984C38.1288 13.9984 35.8992 16.6688 35.0703 19.1557L37.7266 20.0412C38.2976 18.328 39.6825 16.7984 41.9984 16.7984V13.9984Z" fill="#545E8B"/>
<path d="M44.7992 12.6008C44.7992 14.1472 43.5456 15.4008 41.9992 15.4008C40.4528 15.4008 39.1992 14.1472 39.1992 12.6008C39.1992 11.0544 40.4528 9.80078 41.9992 9.80078C43.5456 9.80078 44.7992 11.0544 44.7992 12.6008Z" stroke="#545E8B" stroke-width="2.8" stroke-linecap="round"/>
<path d="M13.9992 42.0016C13.9992 42.7748 13.3724 43.4016 12.5992 43.4016C11.826 43.4016 11.1992 42.7748 11.1992 42.0016C11.1992 41.2284 11.826 40.6016 12.5992 40.6016C13.3724 40.6016 13.9992 41.2284 13.9992 42.0016Z" fill="white"/>
<path d="M9.10156 32.1992C9.10156 30.2662 10.6686 28.6992 12.6016 28.6992C14.5346 28.6992 16.1016 30.2662 16.1016 32.1992C16.1016 34.1322 14.5346 35.6992 12.6016 35.6992V37.7992" stroke="white" stroke-width="2.8" stroke-linecap="round" stroke-linejoin="round"/>
</g>
<defs>
<clipPath id="clip0_15039_3429">
<rect width="56" height="56" fill="white"/>
</clipPath>
</defs>
</svg>
